<svg id="Ebene_1" data-name="Ebene 1" xmlns="http://www.w3.org/2000/svg" viewBox="0 0 24 24"><defs><style>.cls-1{fill:#000100;}</style></defs><title>icon-power-button</title><path class="cls-1" d="M20,8A12,12,0,1,0,32,20,12,12,0,0,0,20,8Zm0,22A10,10,0,1,1,30,20,10,10,0,0,1,20,30Z" transform="translate(-8 -8)"/><path class="cls-1" d="M22,14.35v2.21a4,4,0,1,1-4,0V14.35A6,6,0,1,0,22,14.35Z" transform="translate(-8 -8)"/><path class="cls-1" d="M20,19a1,1,0,0,0,1-1V14a1,1,0,0,0-2,0v4A1,1,0,0,0,20,19Z" transform="translate(-8 -8)"/></svg>