<svg id="Ebene_1" data-name="Ebene 1" xmlns="http://www.w3.org/2000/svg" viewBox="0 0 22 24"><defs><style>.cls-1{fill:#000100;}</style></defs><title>icon-book</title><path class="cls-1" d="M44,22H24a1,1,0,0,0-1,1V45a1,1,0,0,0,1,1H44a1,1,0,0,0,1-1V23A1,1,0,0,0,44,22ZM43,44H25V42H43v2Zm0-3H25V24H43V41Z" transform="translate(-23 -22)"/><path class="cls-1" d="M40,27H28v7H40V27Zm-1,6H29V28H39v5Z" transform="translate(-23 -22)"/><rect class="cls-1" x="7" y="7" width="8" height="1"/><rect class="cls-1" x="7" y="9" width="8" height="1"/></svg>